<svg fill="none" height="32" viewBox="0 0 32 32" width="32" xmlns="http://www.w3.org/2000/svg"><g fill="#00a9e6"><path d="m15.9992 0c-8.82036.00159992-15.99760008 7.17884-15.9992 16.0008 0 8.822 7.17724 15.9992 16.0008 15.9992 8.822-.0016 15.9992-7.1788 15.9992-15.9992 0-8.82196-7.1772-15.99920008-16.0008-16.0008zm.0016 28.8002c-7.05885 0-12.80096-5.7422-12.80096-12.7994.0016-7.05725 5.74371-12.79936 12.79936-12.80096 7.0588.0016 12.801 5.74371 12.801 12.80096 0 7.0556-5.7422 12.7978-12.7994 12.7994z"/><path d="m16.02 9.59302-6.4077 6.40768 6.4077 6.4061v-4.8062h6.3901v-3.1998h-6.3901z"/></g></svg>