<svg viewBox="0 0 511.24 103.67" xmlns="http://www.w3.org/2000/svg"><g transform="translate(.09)"><path d="m152.78 44.81h-20.51v-36.81h20.51v3.8h-16.23v11.87h15.25v3.77h-15.25v13.56h16.23z" fill="#010101"/><path d="m178.1 37.28a6.93 6.93 0 0 1 -2.86 5.95c-1.92 1.39-4.6 2.08-8.06 2.08-3.66 0-6.51-.57-8.56-1.73v-3.88a21.11 21.11 0 0 0 4.27 1.59 18.09 18.09 0 0 0 4.39.58 10 10 0 0 0 5-1 3.6 3.6 0 0 0 .36-5.94 22.14 22.14 0 0 0 -5.45-2.7 29.7 29.7 0 0 1 -5.47-2.51 7.37 7.37 0 0 1 -2.42-2.43 6.3 6.3 0 0 1 -.79-3.24 6.19 6.19 0 0 1 2.74-5.33 12.8 12.8 0 0 1 7.53-2 22.18 22.18 0 0 1 8.71 1.81l-1.49 3.4a20 20 0 0 0 -7.53-1.71 8.68 8.68 0 0 0 -4.48.93 2.9 2.9 0 0 0 -1.51 2.57 3.12 3.12 0 0 0 .57 1.89 5.69 5.69 0 0 0 1.82 1.48 40.61 40.61 0 0 0 4.84 2q4.91 1.79 6.63 3.6a6.35 6.35 0 0 1 1.76 4.59z" fill="#010101"/><path d="m202.7 37.28a6.94 6.94 0 0 1 -2.87 5.95c-1.92 1.39-4.6 2.08-8.06 2.08-3.66 0-6.51-.57-8.56-1.73v-3.88a21.11 21.11 0 0 0 4.27 1.59 18.09 18.09 0 0 0 4.39.58 10 10 0 0 0 5-1 3.6 3.6 0 0 0 .36-5.94 22.14 22.14 0 0 0 -5.45-2.7 29.7 29.7 0 0 1 -5.47-2.51 7.46 7.46 0 0 1 -2.42-2.43 6.3 6.3 0 0 1 -.79-3.24 6.19 6.19 0 0 1 2.74-5.33 12.8 12.8 0 0 1 7.53-2 22.18 22.18 0 0 1 8.71 1.81l-1.49 3.4a20 20 0 0 0 -7.52-1.71 8.65 8.65 0 0 0 -4.48.93 2.88 2.88 0 0 0 -1.51 2.57 3.11 3.11 0 0 0 .56 1.89 5.63 5.63 0 0 0 1.83 1.48 41 41 0 0 0 4.83 2q4.91 1.79 6.63 3.6a6.35 6.35 0 0 1 1.77 4.59z" fill="#010101"/><path d="m221.15 45.31q-6.12 0-9.66-3.72t-3.49-10.35q0-6.66 3.28-10.59a10.91 10.91 0 0 1 8.82-3.93 10.41 10.41 0 0 1 8.21 3.41 13.11 13.11 0 0 1 3 9v2.64h-19q.12 4.86 2.45 7.38a8.49 8.49 0 0 0 6.56 2.52 22.29 22.29 0 0 0 8.81-1.87v3.73a22.39 22.39 0 0 1 -4.19 1.37 23.4 23.4 0 0 1 -4.79.41zm-1.15-25.09a6.81 6.81 0 0 0 -5.29 2.16 10 10 0 0 0 -2.33 6h14.42a9.21 9.21 0 0 0 -1.76-6.05 6.23 6.23 0 0 0 -5.04-2.11z" fill="#010101"/><path d="m257.29 44.81v-17.81a7.24 7.24 0 0 0 -1.53-5 6.26 6.26 0 0 0 -4.76-1.73q-4.33 0-6.34 2.34t-2 7.73v14.47h-4.18v-27.59h3.4l.68 3.78h.2a8.6 8.6 0 0 1 3.6-3.16 11.83 11.83 0 0 1 5.16-1.12q5 0 7.5 2.4t2.52 7.69v18z" fill="#010101"/><path d="m279 41.87a15.28 15.28 0 0 0 3.78-.51v3.2a7.44 7.44 0 0 1 -2 .54 15.36 15.36 0 0 1 -2.38.21c-5.34 0-8-2.8-8-8.43v-16.41h-4v-2l4-1.74 1.76-5.89h2.41v6.39h8v3.25h-8v16.23a5.57 5.57 0 0 0 1.19 3.82 4.1 4.1 0 0 0 3.24 1.34z" fill="#010101"/><path d="m287.9 9.75a2.76 2.76 0 0 1 .7-2.1 2.45 2.45 0 0 1 1.76-.65 2.47 2.47 0 0 1 1.74.68 2.71 2.71 0 0 1 .73 2.09 2.75 2.75 0 0 1 -.73 2.1 2.56 2.56 0 0 1 -3.5 0 2.82 2.82 0 0 1 -.7-2.12zm4.53 35.06h-4.18v-27.59h4.18z" fill="#010101"/><path d="m318.25 44.81-.83-3.93h-.2a11.71 11.71 0 0 1 -4.11 3.52 12.63 12.63 0 0 1 -5.13.91 9.23 9.23 0 0 1 -6.43-2.11 7.7 7.7 0 0 1 -2.32-6q0-8.35 13.36-8.76l4.68-.15v-1.73a7 7 0 0 0 -1.39-4.79 5.78 5.78 0 0 0 -4.47-1.55 18.3 18.3 0 0 0 -7.8 2.11l-1.29-3.19a19.61 19.61 0 0 1 4.47-1.74 19.32 19.32 0 0 1 4.87-.63q4.93 0 7.31 2.19t2.38 7v18.85zm-9.43-2.94a8.48 8.48 0 0 0 6.12-2.14 7.91 7.91 0 0 0 2.23-6v-2.5l-4.18.18c-3.32.12-5.71.63-7.18 1.55a4.66 4.66 0 0 0 -2.2 4.27 4.27 4.27 0 0 0 1.39 3.45 5.68 5.68 0 0 0 3.82 1.19z" fill="#010101"/><path d="m334.14 44.81h-4.14v-39.16h4.18z" fill="#010101"/><path d="m385 44.81h-4.28v-17.32h-19.42v17.32h-4.3v-36.81h4.28v15.67h19.38v-15.67h4.34z" fill="#010101"/><path d="m406.07 45.31q-6.1 0-9.65-3.72t-3.53-10.35q0-6.66 3.28-10.59a10.91 10.91 0 0 1 8.83-3.93 10.43 10.43 0 0 1 8.21 3.41 13.11 13.11 0 0 1 3 9v2.64h-19q.14 4.86 2.46 7.38a8.49 8.49 0 0 0 6.56 2.52 22.29 22.29 0 0 0 8.77-1.87v3.73a22.24 22.24 0 0 1 -4.2 1.37 23.27 23.27 0 0 1 -4.73.41zm-1.13-25.09a6.85 6.85 0 0 0 -5.3 2.16 10 10 0 0 0 -2.32 6h14.42a9.21 9.21 0 0 0 -1.74-6.06 6.23 6.23 0 0 0 -5.06-2.1z" fill="#010101"/><path d="m440.31 44.81-.83-3.93h-.2a11.73 11.73 0 0 1 -4.12 3.52 12.58 12.58 0 0 1 -5.12.91 9.2 9.2 0 0 1 -6.43-2.11 7.68 7.68 0 0 1 -2.33-6q0-8.35 13.36-8.76l4.69-.15v-1.73a7 7 0 0 0 -1.4-4.79 5.75 5.75 0 0 0 -4.47-1.55 18.3 18.3 0 0 0 -7.8 2.11l-1.29-3.19a19.61 19.61 0 0 1 4.47-1.74 19.37 19.37 0 0 1 4.87-.63q4.94 0 7.32 2.19t2.37 7v18.85zm-9.44-2.94a8.52 8.52 0 0 0 6.13-2.14 8 8 0 0 0 2.23-6v-2.5l-4.18.18c-3.33.12-5.72.63-7.19 1.55a4.66 4.66 0 0 0 -2.2 4.27 4.3 4.3 0 0 0 1.34 3.45 5.68 5.68 0 0 0 3.87 1.19z" fill="#010101"/><path d="m456.19 44.81h-4.19v-39.16h4.18z" fill="#010101"/><path d="m474 41.87a13.54 13.54 0 0 0 2.14-.17 13.84 13.84 0 0 0 1.64-.34v3.2a7.55 7.55 0 0 1 -2 .54 15.46 15.46 0 0 1 -2.38.21c-5.34 0-8-2.8-8-8.43v-16.41h-4v-2l4-1.74 1.76-5.89h2.42v6.39h8v3.25h-8v16.23a5.56 5.56 0 0 0 1.18 3.82 4.12 4.12 0 0 0 3.24 1.34z" fill="#010101"/><path d="m502.13 44.81v-17.81a7.24 7.24 0 0 0 -1.54-5q-1.53-1.66-4.81-1.66-4.35 0-6.35 2.37c-1.34 1.57-2 4.16-2 7.75v14.35h-4.18v-39.16h4.18v11.85a26.53 26.53 0 0 1 -.2 3.55h.25a8.43 8.43 0 0 1 3.52-3.13 11.34 11.34 0 0 1 5.2-1.15q5.06 0 7.59 2.41c1.68 1.6 2.53 4.14 2.53 7.63v18z" fill="#010101"/><path d="m131.6 63.44h15a17.63 17.63 0 0 1 5.89.92 12.43 12.43 0 0 1 4.34 2.64 11.27 11.27 0 0 1 2.77 4 13.35 13.35 0 0 1 1 5.15v.1a12.89 12.89 0 0 1 -1.15 5.59 11.33 11.33 0 0 1 -3.17 4 13.72 13.72 0 0 1 -4.7 2.43 20 20 0 0 1 -5.78.81h-6.12v11h-8.08zm14.4 18.46a6.54 6.54 0 0 0 4.71-1.6 5.23 5.23 0 0 0 1.67-3.94v-.11a5 5 0 0 0 -1.75-4.13 7.43 7.43 0 0 0 -4.79-1.41h-6.22v11.19z" fill="#00a9e5"/><path d="m192.15 63.18h7.42l15.69 36.82h-8.42l-3.35-8.21h-15.49l-3.33 8.21h-8.21zm8.47 21.54-4.86-11.86-4.87 11.86z" fill="#00a9e5"/><path d="m247.05 100.57a24.19 24.19 0 0 1 -8.21-1.44 21.68 21.68 0 0 1 -7.32-4.42l4.76-5.7a23.72 23.72 0 0 0 5.15 3.24 13.77 13.77 0 0 0 5.77 1.2 7 7 0 0 0 3.9-.91 2.89 2.89 0 0 0 1.39-2.54v-.1a3.26 3.26 0 0 0 -.29-1.39 3 3 0 0 0 -1.1-1.12 11.87 11.87 0 0 0 -2.26-1c-1-.34-2.21-.71-3.75-1.09a46.67 46.67 0 0 1 -5-1.52 14.32 14.32 0 0 1 -3.83-2.07 8.25 8.25 0 0 1 -2.43-3 10.58 10.58 0 0 1 -.87-4.55v-.16a10.51 10.51 0 0 1 .94-4.52 10.25 10.25 0 0 1 2.59-3.48 12 12 0 0 1 4-2.25 16.3 16.3 0 0 1 5.17-.78 21.08 21.08 0 0 1 13.59 4.65l-4.18 6.07a26 26 0 0 0 -4.78-2.69 12.22 12.22 0 0 0 -4.71-1 5.67 5.67 0 0 0 -3.52.92 2.75 2.75 0 0 0 -1.18 2.27v.1a3.28 3.28 0 0 0 .34 1.55 3.1 3.1 0 0 0 1.23 1.16 12 12 0 0 0 2.44 1c1 .31 2.33.68 3.9 1.09a37.39 37.39 0 0 1 5 1.65 13.75 13.75 0 0 1 3.67 2.2 8.3 8.3 0 0 1 2.25 3 10.17 10.17 0 0 1 .76 4.14v.1a11.49 11.49 0 0 1 -1 4.84 9.94 9.94 0 0 1 -2.76 3.55 12.4 12.4 0 0 1 -4.21 2.2 18.56 18.56 0 0 1 -5.45.8z" fill="#00a9e5"/><path d="m293.58 100.57a24.23 24.23 0 0 1 -8.21-1.44 21.78 21.78 0 0 1 -7.32-4.42l4.76-5.7a24 24 0 0 0 5.19 3.24 13.81 13.81 0 0 0 5.78 1.2 7.08 7.08 0 0 0 3.9-.91 2.88 2.88 0 0 0 1.32-2.54v-.1a3.26 3.26 0 0 0 -.29-1.39 2.91 2.91 0 0 0 -1.1-1.12 11.45 11.45 0 0 0 -2.25-1c-1-.34-2.21-.71-3.75-1.09a46.67 46.67 0 0 1 -5-1.52 14.17 14.17 0 0 1 -3.83-2.07 8.28 8.28 0 0 1 -2.44-3 10.59 10.59 0 0 1 -.86-4.55v-.16a10.65 10.65 0 0 1 .93-4.52 10.38 10.38 0 0 1 2.59-3.48 12 12 0 0 1 4-2.25 16.24 16.24 0 0 1 5.16-.78 21.13 21.13 0 0 1 13.6 4.65l-4.18 6.07a26 26 0 0 0 -4.76-2.69 12.14 12.14 0 0 0 -4.7-1 5.68 5.68 0 0 0 -3.53.92 2.78 2.78 0 0 0 -1.18 2.27v.1a3.41 3.41 0 0 0 .34 1.55 3.07 3.07 0 0 0 1.25 1.16 11.68 11.68 0 0 0 2.43 1c1 .31 2.34.68 3.91 1.09a37.71 37.71 0 0 1 4.95 1.65 13.59 13.59 0 0 1 3.71 2.26 8.33 8.33 0 0 1 2.26 3 10.34 10.34 0 0 1 .76 4.14v.1a11.34 11.34 0 0 1 -1 4.84 9.92 9.92 0 0 1 -2.75 3.55 12.44 12.44 0 0 1 -4.22 2.2 18.46 18.46 0 0 1 -5.47.74z" fill="#00a9e5"/><path d="m327.05 63.44h14.95a17.53 17.53 0 0 1 5.88.92 12.48 12.48 0 0 1 4.4 2.59 11.27 11.27 0 0 1 2.77 4 13.35 13.35 0 0 1 1 5.15v.1a12.74 12.74 0 0 1 -1.15 5.59 11.3 11.3 0 0 1 -3.16 4 13.68 13.68 0 0 1 -4.74 2.46 19.92 19.92 0 0 1 -5.77.81h-6.13v11h-8.05zm14.43 18.46a6.5 6.5 0 0 0 4.7-1.6 5.2 5.2 0 0 0 1.68-3.94v-.11a5 5 0 0 0 -1.75-4.13 7.45 7.45 0 0 0 -4.79-1.41h-6.22v11.19z" fill="#00a9e5"/><path d="m392.82 100.67a20 20 0 0 1 -7.82-1.49 19.1 19.1 0 0 1 -6.14-4 17.9 17.9 0 0 1 -4-6 18.73 18.73 0 0 1 -1.43-7.34v-.11a18.39 18.39 0 0 1 1.46-7.34 18.64 18.64 0 0 1 10.22-10.09 21.19 21.19 0 0 1 15.61 0 19.24 19.24 0 0 1 6.14 4 18 18 0 0 1 4 6 18.78 18.78 0 0 1 1.44 7.35v.1a18.41 18.41 0 0 1 -1.47 7.35 18.73 18.73 0 0 1 -10.22 10.09 20.21 20.21 0 0 1 -7.79 1.48zm.11-7.42a11 11 0 0 0 4.44-.89 10.09 10.09 0 0 0 3.48-2.46 11.67 11.67 0 0 0 2.25-3.63 12 12 0 0 0 .81-4.42v-.11a12.15 12.15 0 0 0 -.81-4.44 11 11 0 0 0 -2.3-3.66 11.23 11.23 0 0 0 -3.53-2.49 10.73 10.73 0 0 0 -4.45-.91 11 11 0 0 0 -4.47.89 10.17 10.17 0 0 0 -3.45 2.46 11.44 11.44 0 0 0 -2.25 3.63 12 12 0 0 0 -.81 4.42v.1a12.24 12.24 0 0 0 .81 4.45 11 11 0 0 0 5.81 6.14 10.67 10.67 0 0 0 4.47.92z" fill="#00a9e5"/><path d="m432.56 63.44h16.73q7 0 10.67 3.72a11.29 11.29 0 0 1 3.14 8.36v.1a11.54 11.54 0 0 1 -2.17 7.25 12.6 12.6 0 0 1 -5.68 4.1l8.94 13.03h-9.41l-7.84-11.71h-6.33v11.71h-8.05zm16.21 17.78a6.67 6.67 0 0 0 4.57-1.41 4.77 4.77 0 0 0 1.6-3.77v-.1a4.68 4.68 0 0 0 -1.67-3.94 7.42 7.42 0 0 0 -4.66-1.31h-8v10.53z" fill="#00a9e5"/><path d="m492 70.87h-11.18v-7.43h30.33v7.43h-11.15v29.13h-8z" fill="#00a9e5"/><path d="m90.6 34.29a1.31 1.31 0 0 1 1.26-2.29 37.17 37.17 0 0 1 10.5 8.69 51.29 51.29 0 0 0 -6.55-16.14 49.6 49.6 0 0 0 -12.27-4.88 50.56 50.56 0 0 0 -5-1 1.31 1.31 0 1 1 .37-2.59 52 52 0 0 1 13.76 3.92 52.18 52.18 0 0 0 -14.08-12.52 59.08 59.08 0 0 0 -11.44-.23l-1.67.16a1.35 1.35 0 0 1 -.93-.26 1.29 1.29 0 0 1 -.51-.9 1.31 1.31 0 0 1 1.16-1.45l1.8-.16c2-.15 3.9-.2 5.86-.17a51.75 51.75 0 0 0 -21.11-4.47c-1.12 0-2.23.05-3.33.12-1.81.63-3.61 1.32-5.36 2.09a1.28 1.28 0 0 1 -1.32-.16 1.2 1.2 0 0 1 -.4-.51 1.29 1.29 0 0 1 -.11-.47c-1.06.22-2.11.48-3.15.76a1.29 1.29 0 0 1 1.21.7 1.31 1.31 0 0 1 -.55 1.77c-.71.36-1.42.75-2.11 1.14a1.3 1.3 0 0 1 -1.44-.1 1.17 1.17 0 0 1 -.34-.34 1.31 1.31 0 0 1 .49-1.79c.7-.39 1.41-.78 2.12-1.15a51.89 51.89 0 0 0 -36.61 39.94 32 32 0 0 0 4.59 11.72 1.31 1.31 0 0 1 -1.89 1.75 1.4 1.4 0 0 1 -.31-.33 34.47 34.47 0 0 1 -3.24-6.42c-.06 1-.1 2.07-.1 3.12a51.76 51.76 0 0 0 3.1 17.62 1.29 1.29 0 0 1 1.74-.09c.55.46 1.12.91 1.7 1.34a1.31 1.31 0 1 1 -1.59 2.09l-.32-.24-.47-.38a51.67 51.67 0 0 0 9.94 15.13 54.49 54.49 0 0 0 28.72 2.15 1.31 1.31 0 0 1 .48 2.54 57.09 57.09 0 0 1 -25-.71 51.85 51.85 0 0 0 18.21 10c1.5-.1 3-.22 4.49-.42a64.84 64.84 0 0 0 34.1-15.34 1.29 1.29 0 0 1 1.84.13 1.31 1.31 0 0 1 -.12 1.85 67.57 67.57 0 0 1 -32.72 15.59 53 53 0 0 0 7.72.57 51.6 51.6 0 0 0 32.11-11.14 63.79 63.79 0 0 0 8.91-9.83 26.36 26.36 0 0 0 -12.54-41 1.31 1.31 0 0 1 .84-2.48 28.82 28.82 0 0 1 19.61 29.78 51.74 51.74 0 0 0 2.93-17.18 50.54 50.54 0 0 0 -.3-5.53 35.52 35.52 0 0 0 -12.68-12zm-17.24-18.7a1.31 1.31 0 1 1 -.09 2.61 46.49 46.49 0 0 0 -24.07 5.54 1.34 1.34 0 0 1 -1.43-.11 1.39 1.39 0 0 1 -.35-.41 1.31 1.31 0 0 1 .52-1.78 49.07 49.07 0 0 1 25.42-5.85zm-38.56 41.49a1.31 1.31 0 1 1 .32 2.6 23.71 23.71 0 0 1 -17.12-4.85 23.46 23.46 0 0 1 -7.73-10.24 1.3 1.3 0 0 1 .73-1.69 1.32 1.32 0 0 1 1.69.76 21.41 21.41 0 0 0 22.11 13.42zm-3.35-19.64a1.3 1.3 0 0 1 -.25-1.83 50.88 50.88 0 0 1 12.8-11.87 1.31 1.31 0 0 1 1.43 2.2 48.18 48.18 0 0 0 -12.15 11.26 1.3 1.3 0 0 1 -1.83.24zm3.92 10.36a1.27 1.27 0 0 1 -.43-.58 1.32 1.32 0 0 1 .77-1.69 9.65 9.65 0 0 0 4.29-3.17 39.86 39.86 0 0 1 8.16-8 1.31 1.31 0 1 1 1.55 2.11 37.26 37.26 0 0 0 -7.61 7.44 12.42 12.42 0 0 1 -5.47 4.09 1.32 1.32 0 0 1 -1.26-.2zm4.34 8.06a20.81 20.81 0 0 0 9.06-6.78 29.07 29.07 0 0 1 27-11.11 1.31 1.31 0 1 1 -.36 2.59 26.45 26.45 0 0 0 -24.52 10.05 23.42 23.42 0 0 1 -10.24 7.69 1.31 1.31 0 0 1 -1.27-.18 1.35 1.35 0 0 1 -.42-.57 1.31 1.31 0 0 1 .75-1.69zm21.09-50.42a1.31 1.31 0 1 1 .46 2.56 60 60 0 0 0 -33.59 18.65c-1.1 1.22-2.16 2.49-3.16 3.79a9.86 9.86 0 0 0 6.49 15.65 1.31 1.31 0 0 1 -.32 2.6 12.07 12.07 0 0 1 -5.86-2.38 12.63 12.63 0 0 1 -3.93-5.14 12.2 12.2 0 0 1 1.45-12.23v-.06c1.05-1.37 2.16-2.71 3.32-4a62.47 62.47 0 0 1 35.14-19.44zm-50.86 23.78a23.35 23.35 0 0 1 3.64-7 69.15 69.15 0 0 1 14.5-14.36 1.32 1.32 0 0 1 1.83.28 1.3 1.3 0 0 1 -.28 1.86 66.69 66.69 0 0 0 -13.91 13.72 20.43 20.43 0 0 0 -3.28 6.28 1.31 1.31 0 0 1 -1.65.85 1.39 1.39 0 0 1 -.4-.21 1.32 1.32 0 0 1 -.45-1.42zm-1 4.87a1.31 1.31 0 0 1 2.61.26 20.59 20.59 0 0 0 0 4.37 1.31 1.31 0 0 1 -1.16 1.45 1.34 1.34 0 0 1 -.94-.26 1.32 1.32 0 0 1 -.45-.91 23.12 23.12 0 0 1 -.07-4.91zm-2.69 25a1.31 1.31 0 0 1 2-1.73 31.52 31.52 0 0 0 2.63 2.67 1.31 1.31 0 0 1 -1.67 2l-.12-.03a33.77 33.77 0 0 1 -2.85-2.89zm7 17.25a1.32 1.32 0 0 1 -1.77.56c-.85-.43-1.7-.9-2.52-1.39l-.12-.09a1.31 1.31 0 0 1 1.46-2.16c.78.46 1.58.9 2.38 1.31a1.32 1.32 0 0 1 .52 1.79zm15.93 5.52a44.9 44.9 0 0 1 -13.2-2.94 1.4 1.4 0 0 1 -.32-.18 1.32 1.32 0 0 1 -.43-1.51 1.3 1.3 0 0 1 1.69-.75 42.76 42.76 0 0 0 12.44 2.77 1.31 1.31 0 1 1 -.18 2.61zm-16.29-16.86h-.07a1.31 1.31 0 0 1 1.53-2.13 32.26 32.26 0 0 0 18.84 5.43 1.31 1.31 0 0 1 1.35 1.27 1.32 1.32 0 0 1 -1.27 1.35 35 35 0 0 1 -20.38-5.92zm22.24 16.9c-.81 0-1.63.08-2.44.09a1.31 1.31 0 1 1 0-2.62c.76 0 1.53 0 2.3-.08a43.47 43.47 0 0 0 31.37-16.76 6.89 6.89 0 0 1 11 .09 1.31 1.31 0 0 1 -2.11 1.56 4.27 4.27 0 0 0 -6.74-.08 46.09 46.09 0 0 1 -33.38 17.8zm15.43 8.1c-.7.24-1.42.47-2.13.69a1.31 1.31 0 1 1 -.75-2.51c.67-.21 1.35-.43 2-.66a1.31 1.31 0 0 1 .88 2.48zm26.7-19.23a57 57 0 0 1 -22 17.41 1.32 1.32 0 0 1 -1.33-.16 1.27 1.27 0 0 1 -.4-.51 1.31 1.31 0 0 1 .67-1.73 54.2 54.2 0 0 0 21-16.57 4.14 4.14 0 0 0 .7-1.37 1.33 1.33 0 0 1 1.6-.84 1.31 1.31 0 0 1 .88 1.63 6.85 6.85 0 0 1 -1.08 2.16zm7.17-15a1.31 1.31 0 0 1 1.83.27 18 18 0 0 1 -.18 21.45 65.12 65.12 0 0 1 -6.12 7 1.3 1.3 0 0 1 -1.72.11l-.13-.12a1.3 1.3 0 0 1 0-1.85 64.93 64.93 0 0 0 5.89-6.63 15.36 15.36 0 0 0 .18-18.34 1.31 1.31 0 0 1 .25-1.89zm-1.6-3.24a1.31 1.31 0 1 1 -1.61 2.06 15.45 15.45 0 0 0 -21.53 2.75 35 35 0 0 1 -21.83 13.12 1.34 1.34 0 0 1 -1-.25 1.31 1.31 0 0 1 .58-2.33 32.32 32.32 0 0 0 20.13-12.08 18.06 18.06 0 0 1 25.24-3.24zm5.45-21a1.3 1.3 0 0 1 -1.71.7 37.82 37.82 0 0 0 -32.7 1.54l-.19.1a1.32 1.32 0 0 1 -1.42-.11 1.42 1.42 0 0 1 -.36-.41 1.32 1.32 0 0 1 .52-1.78l.19-.1a40.46 40.46 0 0 1 35-1.65 1.29 1.29 0 0 1 .67 1.76z" fill="none"/><g fill="#264357"><path d="m45.44 25.94a1.31 1.31 0 0 0 -1.44-2.2 50.88 50.88 0 0 0 -12.8 11.87 1.31 1.31 0 0 0 2.08 1.59 48.18 48.18 0 0 1 12.16-11.26z"/><path d="m47.42 23.22a1.39 1.39 0 0 0 .35.41 1.34 1.34 0 0 0 1.43.11 46.49 46.49 0 0 1 24.07-5.54 1.31 1.31 0 1 0 .09-2.61 49.07 49.07 0 0 0 -25.42 5.85 1.31 1.31 0 0 0 -.52 1.78z"/><path d="m78.89 16.09a1.31 1.31 0 0 0 -.37 2.59 50.56 50.56 0 0 1 5 1 49.6 49.6 0 0 1 12.27 4.88 52.4 52.4 0 0 0 -3.12-4.56 52 52 0 0 0 -13.78-3.95z"/><path d="m43.2 92a1.31 1.31 0 0 0 -.51-2.57 54.49 54.49 0 0 1 -28.69-2.12 53.17 53.17 0 0 0 4.21 4 57.09 57.09 0 0 0 24.99.69z"/><path d="m49.7 87.56c-.67.23-1.35.45-2 .66a1.31 1.31 0 0 0 .75 2.51c.71-.22 1.43-.45 2.13-.69a1.31 1.31 0 0 0 -.86-2.48z"/><path d="m77.5 67a1.33 1.33 0 0 0 -1.63.89 4.14 4.14 0 0 1 -.7 1.37 54.2 54.2 0 0 1 -21 16.57 1.31 1.31 0 0 0 -.67 1.73 1.27 1.27 0 0 0 .4.51 1.32 1.32 0 0 0 1.33.16 57 57 0 0 0 22-17.41v-.06a6.85 6.85 0 0 0 1.08-2.16 1.31 1.31 0 0 0 -.81-1.6z"/><path d="m4.85 72.8a1.31 1.31 0 1 0 1.58-2.09c-.58-.43-1.15-.88-1.7-1.34a1.29 1.29 0 0 0 -1.73.09c.33.92.69 1.83 1.07 2.72l.47.38z"/><path d="m12.63 74.59c-.8-.41-1.6-.85-2.38-1.31a1.31 1.31 0 0 0 -1.46 2.16l.12.09c.82.49 1.67 1 2.52 1.39a1.31 1.31 0 1 0 1.2-2.33z"/><path d="m29.31 79.27a42.76 42.76 0 0 1 -12.44-2.77 1.3 1.3 0 0 0 -1.69.75 1.32 1.32 0 0 0 .43 1.51 1.4 1.4 0 0 0 .32.18 44.9 44.9 0 0 0 13.2 2.94 1.31 1.31 0 1 0 .18-2.61z"/><path d="m68.46 64.09a4.27 4.27 0 0 1 6.74.08 1.31 1.31 0 0 0 2.11-1.56 6.89 6.89 0 0 0 -11-.09 43.47 43.47 0 0 1 -31.31 16.77c-.77 0-1.54.07-2.3.08a1.31 1.31 0 0 0 0 2.62c.81 0 1.63 0 2.44-.09a46.09 46.09 0 0 0 33.32-17.81z"/><path d="m3.55 55.47a1.31 1.31 0 0 0 1.89-1.75 32 32 0 0 1 -4.59-11.72 52.73 52.73 0 0 0 -.85 6.72 34.47 34.47 0 0 0 3.23 6.42 1.4 1.4 0 0 0 .32.33z"/><path d="m69.54 49a17.74 17.74 0 0 0 -12 6.82 32.32 32.32 0 0 1 -20.12 12.06 1.31 1.31 0 0 0 -.58 2.33 1.34 1.34 0 0 0 1 .25 35 35 0 0 0 21.83-13.09 15.45 15.45 0 0 1 21.53-2.75 1.31 1.31 0 1 0 1.61-2.06 17.78 17.78 0 0 0 -13.27-3.56z"/><path d="m76.81 85.66a1.29 1.29 0 0 0 -1.81-.13 64.84 64.84 0 0 1 -34.09 15.41c-1.48.2-3 .32-4.49.42a52 52 0 0 0 7.58 1.74 67.57 67.57 0 0 0 32.69-15.59 1.31 1.31 0 0 0 .12-1.85z"/><path d="m84 75.94a64.93 64.93 0 0 1 -5.86 6.66 1.3 1.3 0 0 0 0 1.85l.13.12a1.3 1.3 0 0 0 1.72-.11 65.12 65.12 0 0 0 6.12-7 18 18 0 0 0 .15-21.46 1.31 1.31 0 0 0 -2.11 1.56 15.36 15.36 0 0 1 -.15 18.38z"/><path d="m9.17 62.06a1.31 1.31 0 0 0 1.67-2 31.52 31.52 0 0 1 -2.63-2.67 1.31 1.31 0 0 0 -2 1.73 33.77 33.77 0 0 0 2.88 2.88z"/><path d="m34.54 69.57a1.31 1.31 0 0 0 -1.35-1.27 32.26 32.26 0 0 1 -18.84-5.52 1.31 1.31 0 0 0 -1.53 2.13h.07a35 35 0 0 0 20.38 6 1.32 1.32 0 0 0 1.27-1.34z"/><path d="m10.79 30.87a1.31 1.31 0 0 0 1.65-.87 20.43 20.43 0 0 1 3.26-6.26 66.69 66.69 0 0 1 13.93-13.74 1.3 1.3 0 0 0 .28-1.83 1.32 1.32 0 0 0 -1.83-.28 69.15 69.15 0 0 0 -14.47 14.28 23.35 23.35 0 0 0 -3.64 7 1.32 1.32 0 0 0 .45 1.44 1.39 1.39 0 0 0 .37.26z"/><path d="m34.85 5a1.17 1.17 0 0 0 .34.39 1.3 1.3 0 0 0 1.44.1c.69-.39 1.4-.78 2.11-1.14a1.31 1.31 0 0 0 .55-1.77 1.29 1.29 0 0 0 -1.21-.7l-.62.12c-.71.37-1.42.76-2.12 1.15a1.31 1.31 0 0 0 -.49 1.85z"/><path d="m41.74 2.05a1.28 1.28 0 0 0 1.32.16c1.75-.77 3.55-1.46 5.36-2.09a51.59 51.59 0 0 0 -7.19 1 1.29 1.29 0 0 0 .11.47 1.2 1.2 0 0 0 .4.46z"/><path d="m39.38 58.12a1.31 1.31 0 0 0 1.27.18 23.42 23.42 0 0 0 10.23-7.66 26.45 26.45 0 0 1 24.57-10.11 1.31 1.31 0 1 0 .36-2.59 29.07 29.07 0 0 0 -27 11.11 20.81 20.81 0 0 1 -9.06 6.78 1.31 1.31 0 0 0 -.75 1.72 1.35 1.35 0 0 0 .38.57z"/><path d="m98 54.12a29.19 29.19 0 0 0 -16.9-14.95 1.31 1.31 0 0 0 -.84 2.48 26.36 26.36 0 0 1 12.54 41 63.79 63.79 0 0 1 -8.91 9.83 51.9 51.9 0 0 0 16.76-23.48 29 29 0 0 0 -2.65-14.88z"/><path d="m9.45 39.91a1.34 1.34 0 0 0 .94.26 1.31 1.31 0 0 0 1.16-1.45 20.59 20.59 0 0 1 0-4.37 1.31 1.31 0 0 0 -2.61-.26 23.12 23.12 0 0 0 .06 4.91 1.32 1.32 0 0 0 .45.91z"/><path d="m12.73 43.66a1.32 1.32 0 0 0 -1.73-.76 1.3 1.3 0 0 0 -.76 1.69 23.46 23.46 0 0 0 7.76 10.24 23.71 23.71 0 0 0 17.11 4.85 1.31 1.31 0 1 0 -.32-2.6 21.41 21.41 0 0 1 -22.06-13.42z"/><path d="m25.73 24.89c-1.16 1.28-2.27 2.62-3.32 4v.06a12.2 12.2 0 0 0 -1.45 12.23 12.63 12.63 0 0 0 3.93 5.14 12.07 12.07 0 0 0 5.86 2.38 1.31 1.31 0 0 0 .32-2.6 9.86 9.86 0 0 1 -6.55-15.61c1-1.3 2.06-2.57 3.16-3.79a60 60 0 0 1 33.58-18.7 1.31 1.31 0 1 0 -.46-2.57 62.47 62.47 0 0 0 -35.07 19.46z"/><path d="m67 4.64-1.8.16a1.31 1.31 0 0 0 -1.2 1.45 1.29 1.29 0 0 0 .51.9 1.35 1.35 0 0 0 .93.26l1.67-.16a59.08 59.08 0 0 1 11.44.23 53.66 53.66 0 0 0 -5.78-3c-1.92-.04-3.87.01-5.77.16z"/><path d="m87.59 29.87a40.46 40.46 0 0 0 -35 1.65l-.19.1a1.32 1.32 0 0 0 -.52 1.78 1.42 1.42 0 0 0 .36.41 1.32 1.32 0 0 0 1.42.11l.19-.1a37.82 37.82 0 0 1 32.7-1.54 1.31 1.31 0 0 0 1-2.41z"/><path d="m91.86 32a1.31 1.31 0 0 0 -1.26 2.3 35.52 35.52 0 0 1 12.68 12 49.68 49.68 0 0 0 -.92-5.63 37.17 37.17 0 0 0 -10.5-8.67z"/><path d="m36.63 48a12.42 12.42 0 0 0 5.45-4.07 37.26 37.26 0 0 1 7.61-7.44 1.31 1.31 0 1 0 -1.55-2.11 39.86 39.86 0 0 0 -8.16 8 9.65 9.65 0 0 1 -4.27 3.17 1.32 1.32 0 0 0 -.77 1.69 1.27 1.27 0 0 0 .43.58 1.32 1.32 0 0 0 1.26.18z"/></g><path d="m13 68.6a1.31 1.31 0 1 1 -1.26 2.3 36.32 36.32 0 0 1 -4.53-3 37.88 37.88 0 0 1 -6.34-6.13 51.51 51.51 0 0 0 6 16.06 49.63 49.63 0 0 0 13.17 5.4 50.19 50.19 0 0 0 5 1 1.31 1.31 0 1 1 -.38 2.59 52.37 52.37 0 0 1 -5.28-1 51.93 51.93 0 0 1 -9.6-3.43 52.11 52.11 0 0 0 13.55 12.79 59.52 59.52 0 0 0 13.14.46l1.67-.16a1.31 1.31 0 0 1 .28 2.61l-1.75.16a61.38 61.38 0 0 1 -7.79.11 51.59 51.59 0 0 0 22.87 5.31h.77a73.74 73.74 0 0 0 8-3 1.29 1.29 0 0 1 1.57 1.95 51.88 51.88 0 0 0 40.64-41.72 31.82 31.82 0 0 0 -4.59-11.74 1.31 1.31 0 0 1 2.2-1.42 34.52 34.52 0 0 1 3.19 6.26c0-.7 0-1.41 0-2.12a51.81 51.81 0 0 0 -3.27-18.16 1.3 1.3 0 0 1 -1.38-.12c-.55-.46-1.12-.91-1.7-1.34a1.31 1.31 0 0 1 -.26-1.83 1.32 1.32 0 0 1 1.84-.27 51.68 51.68 0 0 0 -10.48-15 54.44 54.44 0 0 0 -27.4-1.69 1.3 1.3 0 0 1 -1-.24 1.36 1.36 0 0 1 -.49-.79 1.31 1.31 0 0 1 1-1.54 57 57 0 0 1 23.48.34 51.49 51.49 0 0 0 -18.87-9.53c-.74.07-1.49.14-2.23.24a64.84 64.84 0 0 0 -34.12 15.41 1.3 1.3 0 0 1 -1.65.05l-.19-.18a1.3 1.3 0 0 1 .13-1.85 67.46 67.46 0 0 1 30.17-15.1 50 50 0 0 0 -5.36-.28 51.73 51.73 0 0 0 -38.3 16.9c-.9 1.08-1.76 2.17-2.57 3.28v.05a26.35 26.35 0 0 0 12.54 41 1.31 1.31 0 0 1 -.84 2.49 28.8 28.8 0 0 1 -19.64-29.36 51.62 51.62 0 0 0 -3 17.48c0 1.48.08 2.94.2 4.39a35.5 35.5 0 0 0 12.86 12.37zm17.26 18.7a1.32 1.32 0 0 1 -.75-.27 1.26 1.26 0 0 1 -.51-1.09 1.31 1.31 0 0 1 1.35-1.26 46.39 46.39 0 0 0 24.07-5.53 1.31 1.31 0 1 1 1.26 2.3 49.07 49.07 0 0 1 -25.42 5.85zm38.57-41.49a1.33 1.33 0 0 1 -1-.26 1.31 1.31 0 0 1 .64-2.34 24.07 24.07 0 0 1 24.87 15.09 1.31 1.31 0 0 1 -2.45.93 21.4 21.4 0 0 0 -22.06-13.42zm3.34 19.64a1.3 1.3 0 0 1 .25 1.83 50.88 50.88 0 0 1 -12.81 11.87 1.31 1.31 0 0 1 -1.51-.06 1.18 1.18 0 0 1 -.3-.33 1.3 1.3 0 0 1 .39-1.76 48.31 48.31 0 0 0 12.15-11.31 1.31 1.31 0 0 1 1.83-.24zm-3.49-9.78a1.31 1.31 0 0 1 -.76 1.68 9.78 9.78 0 0 0 -4.28 3.18 39.86 39.86 0 0 1 -8.16 8 1.31 1.31 0 1 1 -1.55-2.11 37 37 0 0 0 7.59-7.42 12.34 12.34 0 0 1 5.48-4.1 1.32 1.32 0 0 1 1.68.77zm-4.77-8.67a20.81 20.81 0 0 0 -9.06 6.78 29.06 29.06 0 0 1 -27.04 11.22 1.28 1.28 0 0 1 -.61-.25 1.31 1.31 0 0 1 1-2.34 26.44 26.44 0 0 0 24.53-10.14 23.39 23.39 0 0 1 10.27-7.68 1.31 1.31 0 0 1 .91 2.41zm-21.09 50.45a1.31 1.31 0 1 1 -.46-2.57 60 60 0 0 0 33.64-18.64c1.1-1.22 2.16-2.49 3.16-3.8a9.86 9.86 0 0 0 -6.58-15.64 1.31 1.31 0 1 1 .32-2.6 12.48 12.48 0 0 1 8.35 19.8c-1 1.37-2.16 2.72-3.32 4a62.47 62.47 0 0 1 -35.11 19.45zm25.46 2.28c-.72.4-1.45.8-2.18 1.18a1.31 1.31 0 0 1 -1.41-.12 1.17 1.17 0 0 1 -.36-.43 1.31 1.31 0 0 1 .55-1.77c.71-.37 1.42-.75 2.11-1.14a1.3 1.3 0 0 1 1.78.49 1.31 1.31 0 0 1 -.49 1.79zm25.4-26.06a23.35 23.35 0 0 1 -3.64 7 69.15 69.15 0 0 1 -14.5 14.33 1.3 1.3 0 0 1 -1.54 0 1.07 1.07 0 0 1 -.26-.26 1.31 1.31 0 0 1 .26-1.83 66.4 66.4 0 0 0 13.9-13.74 20.45 20.45 0 0 0 3.27-6.26 1.31 1.31 0 1 1 2.49.8zm1-4.87a1.3 1.3 0 0 1 -1.42 1.2 1.41 1.41 0 0 1 -.67-.26 1.32 1.32 0 0 1 -.5-1.17 21.27 21.27 0 0 0 0-4.37 1.31 1.31 0 0 1 1.16-1.45 1.3 1.3 0 0 1 1.44 1.16 23.12 23.12 0 0 1 0 4.89zm2.7-25a1.31 1.31 0 0 1 -.13 1.85 1.3 1.3 0 0 1 -1.65.06l-.2-.18a31.52 31.52 0 0 0 -2.63-2.67 1.31 1.31 0 1 1 1.75-2 35.44 35.44 0 0 1 2.87 2.92zm-7-17.25a1.31 1.31 0 0 1 1.81-.55c.85.43 1.7.9 2.52 1.39a1.32 1.32 0 0 1 .45 1.8 1.3 1.3 0 0 1 -1.79.45c-.78-.46-1.58-.9-2.38-1.31l-.2-.13a1.31 1.31 0 0 1 -.36-1.67zm-15.89-5.55a45.23 45.23 0 0 1 13.2 3 1.31 1.31 0 1 1 -.94 2.44 42.69 42.69 0 0 0 -12.44-2.77 1.34 1.34 0 0 1 -.71-.27 1.31 1.31 0 0 1 .89-2.4zm16.24 16.93a1.31 1.31 0 0 1 -1.46 2.18 32.26 32.26 0 0 0 -18.84-5.52 1.27 1.27 0 0 1 -.83-.27 1.34 1.34 0 0 1 -.52-1 1.32 1.32 0 0 1 1.27-1.32 34.93 34.93 0 0 1 20.38 5.93zm-22.24-16.93c.81 0 1.63-.08 2.44-.09a1.31 1.31 0 1 1 0 2.62c-.76 0-1.53 0-2.29.08a43.47 43.47 0 0 0 -31.4 16.76 6.77 6.77 0 0 1 -5.49 2.66 6.9 6.9 0 0 1 -4.13-1.4 7.09 7.09 0 0 1 -1.33-1.35 1.31 1.31 0 0 1 2.11-1.56 4.27 4.27 0 0 0 6.74.08 46.09 46.09 0 0 1 33.35-17.8zm-15.43-8.15c.7-.24 1.42-.47 2.13-.69a1.31 1.31 0 0 1 .81 2.51c-.68.2-1.36.43-2 .66a1.31 1.31 0 0 1 -1.23-.2 1.38 1.38 0 0 1 -.44-.61 1.33 1.33 0 0 1 .73-1.67zm-26.7 19.23a57 57 0 0 1 22-17.41 1.31 1.31 0 0 1 1.07 2.4 54.16 54.16 0 0 0 -21 16.57 4.24 4.24 0 0 0 -.7 1.37 1.31 1.31 0 0 1 -1.63.88 1.19 1.19 0 0 1 -.42-.21 1.3 1.3 0 0 1 -.46-1.41 6.85 6.85 0 0 1 1.08-2.16zm-7.17 15a1.3 1.3 0 0 1 -1.57 0 1.6 1.6 0 0 1 -.26-.26 18 18 0 0 1 .18-21.45 68.37 68.37 0 0 1 6.12-7 1.31 1.31 0 1 1 1.84 1.86 65.89 65.89 0 0 0 -5.86 6.65 15.36 15.36 0 0 0 -.18 18.34 1.3 1.3 0 0 1 -.27 1.9zm1.73 3.35-.13-.11a1.31 1.31 0 0 1 1.6-2.07l.11.08a15.45 15.45 0 0 0 21.42-2.83 35 35 0 0 1 21.84-13.07 1.31 1.31 0 1 1 .44 2.57 32.32 32.32 0 0 0 -20.15 12.09 18.09 18.09 0 0 1 -25.12 3.35zm-5.58 20.88a1.31 1.31 0 0 1 1.72-.7 37.8 37.8 0 0 0 32.69-1.54l.19-.1a1.31 1.31 0 0 1 1.26 2.3l-.19.1a40.46 40.46 0 0 1 -35.01 1.63 1.28 1.28 0 0 1 -.28-.16 1.3 1.3 0 0 1 -.38-1.53z" fill="none"/><g fill="#00a9e5"><path d="m60.42 10.86a1.31 1.31 0 0 0 -1 1.54 1.36 1.36 0 0 0 .49.79 1.3 1.3 0 0 0 1 .24 54.44 54.44 0 0 1 27.4 1.69 49.85 49.85 0 0 0 -4.41-3.92 57 57 0 0 0 -23.48-.34z"/><path d="m52.69 15.13a1.31 1.31 0 0 0 1.23.2c.67-.23 1.35-.46 2-.66a1.31 1.31 0 0 0 -.76-2.51c-.71.22-1.43.45-2.13.69a1.33 1.33 0 0 0 -.81 1.67 1.38 1.38 0 0 0 .47.61z"/><path d="m25.7 35.71a1.19 1.19 0 0 0 .42.21 1.31 1.31 0 0 0 1.63-.92 4.24 4.24 0 0 1 .7-1.37 54.16 54.16 0 0 1 21-16.57 1.31 1.31 0 0 0 -1.07-2.4 57 57 0 0 0 -22 17.41v.06a6.85 6.85 0 0 0 -1.08 2.16 1.3 1.3 0 0 0 .4 1.42z"/><path d="m96.93 30.35a1.31 1.31 0 0 0 .26 1.83c.58.43 1.15.88 1.7 1.34a1.3 1.3 0 0 0 1.38.12c-.46-1.21-1-2.39-1.5-3.56a1.32 1.32 0 0 0 -1.84.27z"/><path d="m91 28.3c.8.41 1.6.85 2.38 1.31a1.3 1.3 0 0 0 1.79-.45 1.32 1.32 0 0 0 -.45-1.8c-.82-.49-1.67-1-2.52-1.39a1.31 1.31 0 0 0 -1.4 2.2z"/><path d="m73.6 23.35a1.34 1.34 0 0 0 .71.27 42.69 42.69 0 0 1 12.44 2.77 1.31 1.31 0 1 0 .94-2.39 45.23 45.23 0 0 0 -13.2-3 1.31 1.31 0 0 0 -.89 2.35z"/><path d="m35.16 38.8a4.27 4.27 0 0 1 -6.74-.08 1.31 1.31 0 0 0 -2.11 1.56 7.09 7.09 0 0 0 1.33 1.35 6.9 6.9 0 0 0 4.13 1.4 6.77 6.77 0 0 0 5.49-2.66 43.47 43.47 0 0 1 31.4-16.77c.76-.05 1.53-.07 2.29-.08a1.31 1.31 0 1 0 0-2.62c-.81 0-1.63 0-2.44.09a46.09 46.09 0 0 0 -33.35 17.81z"/><path d="m26.81 17.23.19.18a1.3 1.3 0 0 0 1.65-.05 64.84 64.84 0 0 1 34.09-15.36c.74-.1 1.49-.17 2.23-.24a50.9 50.9 0 0 0 -7.86-1.48 67.46 67.46 0 0 0 -30.17 15.1 1.3 1.3 0 0 0 -.13 1.85z"/><path d="m19.65 27a65.89 65.89 0 0 1 5.86-6.65 1.31 1.31 0 1 0 -1.84-1.86 68.37 68.37 0 0 0 -6.12 7 18 18 0 0 0 -.18 21.45 1.6 1.6 0 0 0 .26.26 1.31 1.31 0 0 0 1.85-1.82 15.36 15.36 0 0 1 .17-18.38z"/><path d="m92.68 41a1.31 1.31 0 0 0 .1 1.85 31.52 31.52 0 0 1 2.63 2.67l.2.18a1.3 1.3 0 0 0 1.65-.06 1.31 1.31 0 0 0 .13-1.85 35.44 35.44 0 0 0 -2.86-2.89 1.32 1.32 0 0 0 -1.85.1z"/><path d="m69.08 33.32a1.34 1.34 0 0 0 .52 1 1.27 1.27 0 0 0 .83.27 32.26 32.26 0 0 1 18.84 5.52 1.31 1.31 0 0 0 1.46-2.18 34.93 34.93 0 0 0 -20.38-6 1.32 1.32 0 0 0 -1.27 1.39z"/><path d="m34.08 53.94a17.79 17.79 0 0 0 12-6.82 32.32 32.32 0 0 1 20.12-12.12 1.31 1.31 0 1 0 -.44-2.58 35 35 0 0 0 -21.76 13.1 15.45 15.45 0 0 1 -21.42 2.83l-.11-.08a1.31 1.31 0 0 0 -1.6 2.07l.13.11a17.8 17.8 0 0 0 13.08 3.49z"/><path d="m98.57 47.36a1.31 1.31 0 0 0 -.39 1.81 31.82 31.82 0 0 1 4.59 11.74 53 53 0 0 0 .76-6.95 34.52 34.52 0 0 0 -3.15-6.21 1.31 1.31 0 0 0 -1.81-.39z"/><path d="m58.19 77a1.3 1.3 0 0 0 -.39 1.81 1.18 1.18 0 0 0 .3.33 1.31 1.31 0 0 0 1.51.06 50.88 50.88 0 0 0 12.81-11.92 1.31 1.31 0 0 0 -2.08-1.59 48.31 48.31 0 0 1 -12.15 11.31z"/><path d="m56.2 79.67a1.31 1.31 0 0 0 -1.78-.52 46.39 46.39 0 0 1 -24.07 5.53 1.31 1.31 0 0 0 -1.35 1.26 1.26 1.26 0 0 0 .51 1.06 1.32 1.32 0 0 0 .75.27 49.07 49.07 0 0 0 25.42-5.85 1.3 1.3 0 0 0 .52-1.75z"/><path d="m24.73 86.8a1.31 1.31 0 1 0 .38-2.59 50.19 50.19 0 0 1 -5-1 49.63 49.63 0 0 1 -13.17-5.4 49.81 49.81 0 0 0 2.94 4.51 51.93 51.93 0 0 0 9.6 3.43 52.37 52.37 0 0 0 5.25 1.05z"/><path d="m77.89 78c1.16-1.28 2.27-2.63 3.32-4a12.48 12.48 0 0 0 -8.31-19.8 1.31 1.31 0 1 0 -.32 2.6 9.86 9.86 0 0 1 6.55 15.61c-1 1.31-2.06 2.58-3.16 3.8a60 60 0 0 1 -33.61 18.67 1.31 1.31 0 1 0 .46 2.57 62.47 62.47 0 0 0 35.07-19.45z"/><path d="m36.67 98.25 1.75-.16a1.31 1.31 0 0 0 -.28-2.61l-1.67.16a59.52 59.52 0 0 1 -13.14-.46 52.41 52.41 0 0 0 5.55 3.18 61.38 61.38 0 0 0 7.79-.11z"/><path d="m61.54 59a37 37 0 0 1 -7.61 7.44 1.31 1.31 0 0 0 -.28 1.83 1.29 1.29 0 0 0 1.83.28 39.86 39.86 0 0 0 8.16-8 9.78 9.78 0 0 1 4.28-3.18 1.31 1.31 0 0 0 -.92-2.47 12.34 12.34 0 0 0 -5.46 4.1z"/><path d="m16 73a40.46 40.46 0 0 0 35-1.65l.19-.1a1.31 1.31 0 0 0 -1.25-2.25l-.19.1a37.8 37.8 0 0 1 -32.69 1.54 1.31 1.31 0 0 0 -1.31 2.25 1.28 1.28 0 0 0 .25.11z"/><path d="m7.23 67.94a36.32 36.32 0 0 0 4.53 3 1.31 1.31 0 1 0 1.24-2.34 35.5 35.5 0 0 1 -12.89-12.37 53.48 53.48 0 0 0 .76 5.54 37.88 37.88 0 0 0 6.36 6.17z"/><path d="m93.23 62.72a1.31 1.31 0 0 0 -1.16 1.45 21.27 21.27 0 0 1 0 4.37 1.32 1.32 0 0 0 .5 1.17 1.41 1.41 0 0 0 .67.26 1.3 1.3 0 0 0 1.43-1.17 23.12 23.12 0 0 0 0-4.92 1.3 1.3 0 0 0 -1.44-1.16z"/><path d="m90.89 59.23a1.31 1.31 0 0 0 2.45-.93 24.07 24.07 0 0 0 -24.83-15.09 1.31 1.31 0 0 0 -.64 2.34 1.33 1.33 0 0 0 1 .26 21.4 21.4 0 0 1 22.02 13.42z"/><path d="m92.83 72a1.3 1.3 0 0 0 -1.64.85 20.45 20.45 0 0 1 -3.27 6.26 66.4 66.4 0 0 1 -13.92 13.8 1.31 1.31 0 0 0 -.28 1.84 1.07 1.07 0 0 0 .28.25 1.3 1.3 0 0 0 1.57 0 69.15 69.15 0 0 0 14.43-14.28 23.35 23.35 0 0 0 3.64-7 1.31 1.31 0 0 0 -.81-1.72z"/><path d="m67 97.45c-.69.39-1.4.77-2.11 1.14a1.31 1.31 0 0 0 -.55 1.77 1.17 1.17 0 0 0 .36.43 1.31 1.31 0 0 0 1.41.12c.73-.38 1.46-.78 2.18-1.18a1.31 1.31 0 0 0 .49-1.79 1.3 1.3 0 0 0 -1.78-.49z"/><path d="m62.29 101.35a1.3 1.3 0 0 0 -1.73-.67 73.74 73.74 0 0 1 -8 3 52.45 52.45 0 0 0 9.61-1 1.3 1.3 0 0 0 .12-1.33z"/><path d="m63 44.59a23.39 23.39 0 0 0 -10.23 7.65 26.44 26.44 0 0 1 -24.6 10.12 1.31 1.31 0 0 0 -1 2.34 1.28 1.28 0 0 0 .61.25 29.06 29.06 0 0 0 27-11.11 20.81 20.81 0 0 1 9.13-6.84 1.31 1.31 0 0 0 -.91-2.41z"/><path d="m5.66 48.77a29.2 29.2 0 0 0 16.9 14.95 1.31 1.31 0 0 0 .84-2.49 26.35 26.35 0 0 1 -12.54-41v-.05c.81-1.11 1.67-2.2 2.57-3.28a51.75 51.75 0 0 0 -10.49 17.46 28.86 28.86 0 0 0 2.72 14.41z"/></g></g></svg>